<svg viewBox="0 0 1000 1000.0037" xmlns="http://www.w3.org/2000/svg"><path d="M252 505.003v-204h51v126c24-30 58-38 91-38 56 0 118 38 118 119 0 10-1 19-2 28 10-40 53-55 120-56 21-1 46-1 65-1v-6c0-36-23-51-64-51-30 0-52 12-54 33h-53c6-53 62-67 112-67 44 0 83 11 100 42l-18-35h59l86 172 85-172h52l-155 304h-56l45-85-97-182c5 11 8 23 8 39v102c0 14 0 29 2 42h-47c-1-11-2-21-2-32-25 31-55 40-96 40-62 0-95-32-95-71 0-6 0-11 1-17-12 52-56 87-115 87-36 0-70-13-92-38 0 10 0 20-1 30h-49c0-16 1-35 1-52v-43H51c3 45 34 72 77 72 30 0 57-12 66-38h51c-10 53-67 71-116 71-89 1-129-48-129-114 0-73 41-122 130-122 70 0 122 37 122 117zm381 8c-45 2-74 10-74 40 0 19 15 40 55 40 52 0 80-29 80-75v-6c-18 0-41 1-62 1h1zm-252 78c46 0 78-33 78-84s-32-84-79-84c-46 0-79 33-79 84s32 84 79 84h1zm-182-105c-1-46-35-64-71-64-40 0-71 20-76 64h147z"/></svg>