<svg viewBox="0 0 1223 1000.0037" xmlns="http://www.w3.org/2000/svg"><path d="M648 994.003c-133 0-199-93-212-112-39 39-98 112-205 112-123 0-227-93-227-244v-504c0-152 104-244 227-244s227 98 227 242a226 226 0 0 1 76-13c127 0 227 104 227 229 0 35-6 66-21 96 81 36 135 117 135 209 0 126-102 229-227 229zm-157-167c33 57 88 91 157 91 83 0 151-69 151-153 0-67-42-125-103-145l-205 207zm-260-749c-75 0-151 52-151 168v504c0 116 76 168 151 168 60 0 93-31 146-85l24-23c-12-37-19-78-19-121v-443c0-116-76-168-151-168zm227 249v362c0 20 2 40 5 58l165-166c48-48 57-83 57-121 0-81-64-153-151-153-27 0-53 7-76 20zm765-327"/></svg>