<svg viewBox="0 0 1000 1000.0037" xmlns="http://www.w3.org/2000/svg"><path d="M158 687.003c-35 16-81 37-132 55 9 39 22 74 38 105 39-24 72-50 98-70-4-31-5-61-4-90zm85-286c-64-25-162-71-243-132v136c76 28 153 46 208 55 11-20 24-40 35-59zm92-103c-44-46-107-119-154-199l-124 43c68 86 166 162 230 204 15-16 32-33 48-48zm57-42c22-15 45-26 65-35-19-50-41-123-54-199l-110 39c29 77 68 147 99 195zm-210 274c-48 2-112 2-180-7 2 39 4 75 5 110 59-7 115-18 157-29 5-26 11-50 18-74zm-1 350c-15 17-30 35-50 56 15 14 31 27 50 40 11 7 23 15 35 24-13-44-26-83-35-120zm528-455c11 10 41 0 41 0l-21-24-44-29c-2 0 11 44 24 53zm144 249l-26-22 15 37 44-2zm-321-674c-18 59-24 131-3 203 7-8 64-67 116-124 0 0 68 77-28 157 0 0 168 117 179 121 0 0-10 37 0 68l132 256-66 79-98-55 48 76s-53 7-70-2c-9-48-51-125-51-125l-100-41s-44-53-40-131c0 0-50 203 84 255l188 237c171-119 177-285 177-617v-195z"/></svg>