<svg viewBox="0 0 1000 1000.0037" xmlns="http://www.w3.org/2000/svg"><path d="M436 45.003c-103 14-197 64-271 144-43 45-72 91-93 148-23 60-29 93-28 168 0 79 10 121 41 188 27 57 56 97 104 142 46 43 92 72 149 94 58 22 92 28 162 28 71 0 105-6 163-28 65-25 105-52 160-107 80-80 121-163 133-272 16-145-35-283-145-386-59-55-129-93-206-112-41-9-128-13-169-7zm286 159c28 7 53 33 53 55 0 10 3 27 5 38s6 41 7 66c3 36 2 48-4 53-4 5-5 10-2 15s2 9-4 11c-4 1-7 6-5 10 1 4-1 8-5 10-5 2-7 7-5 16 1 8 0 16-4 19s-9 25-11 49c-3 24-9 49-14 56-17 26-58 11-79-29-5-11-24-35-42-52-17-17-30-32-27-33 8-6 49 5 63 16 7 6 17 11 22 11s10 2 13 5c8 8 30-7 28-19-1-6 1-11 5-11s4-2-1-8c-4-5-5-11-2-19 9-21-2-129-17-173-12-35-21-39-48-26-34 17-72 29-145 46-72 16-113 31-113 39 0 3 7 10 16 16l15 11-2-19-1-19 30-7c16-3 35-7 42-9 22-5 25 1 18 45l-5 39-29 9c-24 7-29 8-35 1-7-6-7-2-1 32 4 22 6 44 5 50-2 7-1 12 2 12s5-3 5-7c0-3 5-14 10-24l10-18-11-8c-15-10-9-14 11-8 14 4 18 3 24-5 8-12 18-13 26-3 5 5 3 8-5 14l-11 8 13 19c7 10 13 23 13 28 0 15-17 10-29-9-13-21-19-19-33 14-12 28-12 27-20 16-6-8-7-7-7 12 0 11 2 21 4 21s3 6 2 13c-2 12-1 13 3 4 2-5 5-14 5-20 0-9 5-12 35-17 36-5 50-4 50 7 0 4 1 10 3 14 2 5-7 10-35 18-33 10-38 12-38 23 0 20 31 24 62 8 14-7 18-8 18-2 0 11-19 18-57 21l-35 3v16c1 9 1 30 2 45 0 38 9 29 11-11 2-26 3-30 12-29 5 1 20 0 33-3 32-5 42 4 38 38-3 30-11 38-19 20-5-11-5-15 0-18 3-2 5-8 4-13-1-8-5-9-21-8-23 2-28 7-28 31 0 25-5 40-13 40-4 0-7 5-7 13 0 13 1 13 29 10 116-12 117-11 37 24-28 12-57 27-65 33-8 5-35 15-60 20l-44 11-25-11c-21-9-26-14-32-31-3-10-5-21-4-22 2-2 12-1 22 2 17 5 69-1 78-9 2-1 1-21-2-43s-6-58-7-80c-3-82-7-120-14-140-4-11-11-38-15-60s-10-49-14-61c-7-26-9-26-82-10l-52 10-13-12c-18-16-27-36-27-57 0-23 9-26 49-15 32 8 58 7 78-4 18-9 150-48 164-48 18 0 148-29 161-36 6-3 16-10 23-15 13-10 36-12 67-5zm-105 107c5 6 8 21 8 33 0 17-1 21-8 20-12-3-21-19-12-24 5-3 5-6 1-15-7-12-6-12-28-2l-17 8 3 35c3 32 2 35-7 33-7-1-10-10-15-39-7-38-6-53 3-48 2 1 13-1 23-4 28-11 41-10 49 3zm-157 33c-12 5-22 11-22 13 0 14 9 48 11 48s12-3 23-6c18-5 18-5 18-32 0-15-1-28-3-29-3-1-14 2-27 6zm42 209c-2 5-4 11-5 13s5 1 13-2c18-6 18-7 5-14-8-5-11-4-13 3zm-25 5c-9 4-8 17 1 17 4 0 7-5 7-10 0-6 0-10-1-10s-4 2-7 3z"/></svg>